<?xml version="1.0" standalone="no"?>
<!DOCTYPE svg PUBLIC "-//W3C//DTD SVG 20010904//EN"
 "http://www.w3.org/TR/2001/REC-SVG-20010904/DTD/svg10.dtd">
<svg version="1.0" xmlns="http://www.w3.org/2000/svg"
 width="3462.000000pt" height="3462.000000pt" viewBox="0 0 3462.000000 3462.000000"
 preserveAspectRatio="xMidYMid meet">

<g transform="translate(0.000000,3462.000000) scale(0.100000,-0.100000)"
fill="#000000" stroke="none">
<path d="M14781 33305 c-55 -35 -70 -58 -101 -153 -7 -24 -23 -53 -34 -65 -12
-13 -37 -49 -56 -81 -20 -33 -46 -62 -60 -68 -36 -14 -91 -12 -137 7 -38 15
-47 15 -147 -4 -59 -12 -124 -30 -145 -41 -49 -24 -116 -101 -132 -148 -13
-40 -52 -112 -80 -150 -43 -56 -149 -111 -304 -157 -49 -14 -98 -31 -109 -37
-10 -5 -41 -17 -68 -25 -59 -17 -165 -67 -193 -91 -29 -24 -65 -102 -65 -140
0 -18 9 -74 20 -124 17 -73 19 -97 10 -119 -16 -36 -47 -65 -95 -85 -22 -9
-56 -28 -75 -42 -42 -32 -116 -67 -173 -83 -23 -6 -63 -29 -88 -50 -26 -21
-50 -39 -53 -39 -22 0 -170 -123 -261 -215 -47 -48 -74 -99 -123 -234 -7 -19
-16 -77 -19 -128 -7 -113 5 -121 56 -38 40 66 150 171 199 192 57 24 132 -3
132 -47 0 -9 -28 -54 -62 -101 -135 -182 -143 -202 -177 -479 -22 -173 -39
-228 -106 -331 -64 -99 -81 -136 -110 -236 -29 -99 -33 -220 -12 -353 l12 -75
33 120 c69 250 103 328 145 333 51 6 63 -38 72 -268 7 -179 27 -233 109 -300
35 -28 74 -70 87 -93 24 -41 24 -46 21 -247 -5 -305 22 -484 109 -744 22 -66
51 -169 65 -230 28 -123 50 -203 131 -476 71 -239 101 -358 112 -445 11 -83
17 -99 76 -190 25 -38 67 -114 94 -168 l50 -99 -3 -246 c-2 -195 -6 -262 -20
-317 -15 -59 -17 -94 -11 -220 7 -153 25 -235 87 -390 18 -45 58 -172 56 -178
-3 -8 37 -128 52 -157 13 -24 21 -73 28 -160 l9 -125 57 -108 c35 -66 55 -118
54 -135 -1 -15 6 -61 16 -102 52 -215 79 -317 92 -342 23 -44 53 -180 79 -362
23 -156 31 -191 69 -316 8 -25 28 -92 46 -150 44 -145 58 -176 178 -414 102
-201 143 -265 339 -530 32 -43 82 -105 112 -137 30 -33 70 -81 89 -107 20 -26
39 -49 43 -52 3 -3 17 -21 30 -40 113 -167 384 -463 570 -622 98 -84 288 -208
318 -208 7 0 25 -8 39 -19 36 -25 166 -92 222 -114 25 -10 59 -24 75 -32 42
-20 113 -43 155 -49 19 -3 80 -13 134 -21 122 -20 570 -24 691 -7 44 7 109 14
145 17 82 6 124 14 178 31 23 8 57 14 75 14 57 1 233 57 342 109 58 28 108 51
111 51 5 0 100 42 137 61 37 19 62 35 75 47 8 7 37 24 66 39 28 14 68 41 89
59 20 19 40 34 45 34 4 0 18 10 32 23 14 13 33 27 42 33 9 5 34 25 55 45 22
20 64 54 94 75 30 21 81 62 114 91 33 29 78 69 101 89 23 20 50 41 60 47 10 5
39 29 64 52 25 23 59 50 75 61 16 10 43 34 59 52 16 18 42 40 58 48 31 16 317
299 384 380 22 27 60 76 84 109 25 33 71 89 102 124 77 85 121 152 164 253 20
46 52 119 71 163 133 302 204 570 258 985 9 69 27 195 41 280 16 102 24 197
24 278 0 140 19 251 62 374 12 32 -8 171 -23 162 -5 -3 -9 -15 -9 -27 0 -12
-9 -33 -20 -47 -11 -14 -20 -28 -20 -32 0 -4 -13 -29 -28 -55 -19 -32 -32 -76
-41 -133 -7 -47 -19 -105 -26 -130 -19 -62 -45 -208 -45 -248 0 -18 -13 -59
-30 -92 -16 -33 -30 -65 -30 -73 0 -7 -9 -30 -20 -52 -11 -22 -20 -48 -20 -59
0 -25 -20 -83 -42 -121 -10 -16 -24 -43 -31 -60 -8 -16 -21 -36 -30 -44 -10
-7 -17 -18 -17 -23 0 -10 -61 -91 -73 -96 -4 -2 -15 -18 -23 -35 -15 -30 -40
-58 -125 -145 -20 -20 -46 -52 -58 -70 -13 -18 -36 -39 -52 -47 -16 -9 -64
-47 -106 -86 -43 -38 -90 -77 -105 -86 -14 -9 -32 -27 -39 -39 -7 -13 -30 -36
-53 -51 -23 -15 -43 -30 -46 -33 -3 -3 -34 -27 -70 -52 -73 -53 -163 -126
-219 -177 -45 -41 -172 -128 -213 -146 -65 -27 -116 23 -161 156 -29 86 -45
256 -27 288 16 31 -11 181 -50 274 -52 125 -188 257 -265 257 -14 0 -42 7 -63
16 -21 8 -59 14 -87 13 -85 -4 -105 0 -131 26 -48 48 -71 58 -117 51 -36 -6
-53 -2 -102 24 -33 16 -74 30 -92 30 -25 0 -41 9 -69 40 -20 21 -53 45 -73 51
-20 7 -55 26 -79 42 -29 21 -57 32 -86 33 -26 2 -58 13 -79 27 -53 36 -175 44
-248 15 -43 -16 -75 -21 -154 -20 -92 1 -102 -1 -128 -23 -16 -15 -28 -35 -28
-52 -2 -33 -19 -93 -32 -110 -5 -7 -16 -13 -24 -13 -15 0 -15 4 3 92 4 18 0
32 -15 47 -12 12 -21 32 -21 44 0 27 -24 51 -60 61 -14 3 -34 21 -45 38 -18
29 -59 61 -160 128 -37 24 -120 27 -172 5 -32 -13 -35 -17 -22 -29 8 -8 30
-23 49 -33 32 -18 35 -23 32 -59 -8 -102 -58 -180 -124 -193 -26 -5 -38 -15
-55 -50 -29 -58 -71 -101 -98 -101 -18 0 -59 -22 -75 -39 -32 -36 -45 -40 -98
-26 -28 8 -57 17 -64 21 -6 4 -39 6 -74 5 -54 -2 -78 -10 -175 -59 -62 -31
-118 -66 -123 -77 -6 -11 -22 -30 -36 -43 -14 -13 -37 -35 -52 -49 -24 -23
-58 -107 -58 -145 0 -8 -3 -17 -6 -21 -4 -3 -18 -37 -32 -74 -21 -57 -25 -83
-23 -161 2 -57 -2 -98 -9 -106 -6 -8 -15 -54 -21 -102 -5 -49 -14 -103 -19
-120 -6 -17 -15 -67 -20 -112 -5 -45 -14 -91 -20 -102 -31 -58 -100 15 -143
152 -3 9 -16 18 -29 20 -13 2 -27 13 -33 26 -5 12 -17 25 -27 27 -9 3 -31 23
-50 44 -18 21 -43 41 -56 45 -12 4 -29 22 -36 41 -10 23 -23 35 -44 39 -16 4
-44 22 -62 41 -19 19 -38 35 -43 35 -4 0 -33 21 -63 48 -57 49 -135 153 -177
238 -13 27 -45 90 -70 141 -43 86 -82 182 -93 228 -5 20 -48 164 -84 280 -10
33 -21 80 -25 105 -7 44 -30 143 -75 320 -12 47 -25 101 -30 120 -28 117 -87
292 -134 394 -29 63 -53 190 -66 361 -6 72 -15 168 -19 215 -14 143 -12 317 4
480 40 401 45 443 79 610 57 280 70 446 81 990 3 157 10 314 15 350 5 36 16
133 25 215 9 83 20 173 25 200 11 57 14 77 36 235 15 108 49 219 80 265 8 11
14 32 14 47 0 25 54 118 73 126 4 2 17 21 27 43 17 33 30 45 43 38 1 -1 20 7
43 19 23 12 52 22 65 24 13 2 35 10 49 18 14 8 28 13 32 12 4 -1 29 7 55 17
27 10 67 22 90 26 35 5 45 3 60 -14 9 -12 26 -21 35 -21 10 0 58 39 107 86
109 105 121 114 157 111 25 -2 29 2 29 24 1 31 23 55 73 82 20 11 41 25 47 32
13 16 55 26 55 14 0 -5 -7 -9 -15 -9 -10 0 -15 -11 -16 -37 -1 -21 -1 -42 0
-47 5 -26 -13 -90 -35 -121 -13 -20 -24 -44 -24 -53 0 -10 -4 -22 -9 -27 -4
-6 -17 -34 -27 -63 -10 -29 -25 -60 -34 -70 -8 -9 -20 -27 -25 -39 -8 -17 -74
-80 -140 -132 -101 -78 -193 -115 -327 -130 -85 -10 -108 -20 -85 -39 17 -15
106 -32 161 -32 56 0 202 43 293 86 96 46 206 155 298 295 66 100 96 142 81
109 -5 -9 -2 -8 7 3 8 9 17 17 21 17 11 0 96 93 96 105 0 6 11 33 24 61 13 27
27 64 31 82 3 17 11 32 15 32 5 0 12 16 16 35 3 19 10 38 15 41 5 3 9 14 9 24
0 10 9 22 20 25 11 3 20 13 20 21 0 30 40 93 82 128 35 31 40 39 28 47 -13 9
-13 10 1 6 9 -3 20 -2 25 3 19 18 71 21 84 5 17 -20 72 -20 68 0 -2 9 9 23 24
33 27 16 29 16 50 -6 21 -21 22 -22 3 -22 -15 0 -17 -2 -6 -9 19 -12 51 -2 45
14 -3 7 0 23 6 35 11 20 13 21 30 5 15 -13 23 -14 39 -5 12 6 21 7 21 1 0 -5
45 -7 113 -4 77 4 120 2 135 -6 18 -9 25 -8 41 8 20 20 67 22 151 7 14 -2 33
-5 43 -5 9 -1 17 -7 17 -15 0 -22 21 -34 70 -40 83 -9 158 -25 225 -45 37 -12
82 -21 99 -21 18 0 41 -8 52 -18 16 -16 35 -19 105 -17 75 1 90 4 120 27 50
38 137 75 196 83 29 4 63 15 76 25 33 26 109 44 154 35 61 -11 124 -10 131 2
8 12 47 17 307 33 99 6 212 17 250 25 112 22 207 46 244 61 18 8 59 21 90 28
62 16 161 42 291 79 314 88 365 90 430 16 22 -24 61 -75 87 -114 26 -38 78
-115 117 -170 119 -171 221 -454 246 -680 5 -55 15 -136 20 -180 6 -44 19
-152 30 -241 20 -163 40 -235 177 -619 86 -241 148 -536 178 -850 9 -88 18
-182 21 -210 11 -104 35 -225 64 -321 33 -113 66 -273 90 -439 6 -38 19 -106
30 -150 28 -114 38 -188 51 -370 8 -117 16 -165 27 -177 8 -10 19 -18 23 -18
4 0 21 24 38 54 17 29 38 60 47 67 8 7 25 31 36 53 11 23 24 43 28 46 18 12
50 77 50 102 0 14 -16 73 -36 130 -65 190 -79 308 -50 429 11 48 21 64 66 105
30 27 72 66 94 88 50 47 139 106 161 106 9 0 33 9 54 19 l38 20 12 93 c7 51
17 122 22 157 8 63 115 385 164 496 33 76 86 285 105 420 6 44 25 148 41 230
17 83 37 218 44 300 15 154 42 267 99 404 35 86 49 263 36 457 -11 155 -30
243 -121 549 -36 118 -142 326 -191 373 -24 23 -116 114 -205 201 -89 87 -182
168 -205 180 -24 12 -65 37 -93 56 -27 19 -78 44 -112 56 -34 11 -90 39 -125
61 -34 22 -79 46 -99 53 -66 24 -116 53 -146 88 -26 30 -32 48 -46 143 -9 60
-21 161 -28 224 -10 100 -16 124 -49 190 -20 41 -50 109 -65 150 -31 82 -113
216 -201 327 -86 110 -272 295 -339 338 -33 21 -69 46 -80 56 -11 9 -45 30
-75 46 -82 44 -102 56 -133 81 -16 12 -33 22 -38 22 -5 0 -42 15 -82 34 -169
80 -246 105 -419 135 -31 5 -86 23 -122 40 -72 33 -115 46 -191 56 -72 9 -228
46 -241 56 -15 13 -230 39 -394 49 -163 9 -546 2 -615 -11 -27 -6 -97 -17
-155 -25 -58 -7 -139 -23 -180 -34 -41 -11 -124 -29 -185 -39 -61 -11 -136
-31 -167 -46 -61 -28 -162 -53 -323 -81 -55 -9 -140 -33 -190 -52 -75 -29
-106 -36 -191 -40 -93 -4 -106 -2 -156 20 -68 31 -163 104 -241 185 -47 50
-70 65 -112 78 -47 13 -57 21 -84 65 -18 30 -38 50 -48 50 -10 0 -42 -16 -72
-35z m283 -3650 c-4 -8 -10 -15 -15 -15 -5 0 -9 7 -9 15 0 8 7 15 15 15 9 0
12 -6 9 -15z m-617 -90 c-15 -17 -29 -24 -40 -19 -28 11 -19 32 16 37 17 2 36
5 40 5 4 1 -3 -9 -16 -23z m1916 -5739 c29 -8 102 -17 162 -20 92 -5 114 -3
134 10 19 14 36 15 99 9 43 -4 113 -8 157 -9 95 -1 146 -25 169 -79 14 -35 41
-47 105 -47 14 0 44 -7 67 -14 22 -8 60 -17 85 -20 70 -8 148 -27 155 -37 7
-12 23 -11 -296 -15 -351 -4 -340 -3 -363 -16 -62 -33 -308 -37 -442 -8 -97
22 -301 35 -310 20 -3 -5 -11 -7 -18 -4 -7 2 -50 6 -95 7 -58 3 -86 8 -92 18
-11 17 5 28 30 22 10 -3 21 0 24 6 4 6 15 11 25 11 10 0 29 9 43 19 13 11 37
21 53 23 22 2 34 12 46 35 28 57 38 63 94 63 39 0 56 5 70 20 22 24 31 24 98
6z m939 -330 c63 -16 127 -51 146 -78 13 -18 15 -18 33 -2 11 9 34 18 52 19
17 1 50 9 72 19 97 42 186 45 243 9 15 -10 49 -40 76 -68 46 -46 50 -54 60
-122 8 -58 7 -81 -4 -111 -14 -38 -21 -78 -41 -237 -6 -49 -18 -117 -26 -150
-8 -33 -20 -96 -27 -140 -13 -91 -28 -118 -90 -164 -24 -18 -52 -50 -61 -71
-11 -24 -26 -41 -41 -44 -13 -4 -36 -25 -53 -49 -32 -47 -87 -97 -105 -97 -6
0 -36 13 -67 30 -31 16 -98 39 -148 50 -55 12 -110 32 -139 50 -27 16 -55 30
-63 30 -49 1 -118 40 -178 101 -47 48 -56 73 -47 127 4 20 10 60 14 89 7 47
14 58 66 105 54 50 58 56 69 120 16 96 5 114 -70 124 -79 10 -434 11 -508 1
-33 -4 -97 -12 -142 -16 -77 -8 -113 -23 -113 -49 0 -14 63 -106 82 -120 10
-7 18 -21 18 -31 0 -10 12 -26 26 -36 14 -9 33 -24 43 -33 10 -9 25 -21 35
-27 9 -5 17 -19 17 -30 1 -53 -9 -164 -15 -174 -4 -6 0 -11 9 -11 9 0 19 9 22
20 3 11 10 20 15 20 5 0 6 5 3 10 -9 14 24 25 37 12 8 -8 8 -15 -2 -26 -6 -9
-13 -35 -14 -59 -1 -45 -32 -97 -59 -97 -8 0 -20 -7 -27 -15 -7 -8 -23 -15
-36 -15 -19 0 -24 5 -24 26 0 26 0 26 -25 10 -14 -9 -29 -14 -34 -11 -5 2 -11
-2 -15 -10 -8 -22 -63 -19 -78 4 -11 17 -14 16 -56 -25 -24 -24 -49 -44 -54
-44 -6 0 -19 -12 -30 -26 -19 -24 -25 -25 -102 -23 -91 2 -126 11 -152 40 -9
10 -29 19 -44 19 -15 0 -38 8 -51 18 -34 25 -89 50 -125 57 -17 3 -44 19 -59
35 -16 17 -33 30 -39 30 -29 0 -87 38 -101 67 -9 18 -25 37 -35 43 -12 6 -20
21 -20 35 0 14 -4 25 -9 25 -16 0 -41 98 -41 162 -1 35 -7 81 -15 103 -17 47
-19 118 -5 146 6 10 13 56 17 101 4 66 13 98 41 158 33 71 38 77 94 103 32 16
58 35 58 43 0 18 40 34 60 23 27 -14 82 -29 90 -24 4 2 44 -11 88 -30 46 -19
84 -30 87 -25 4 6 14 10 24 10 10 0 23 12 30 26 9 22 16 25 38 19 20 -5 32 0
54 21 25 24 35 26 106 27 44 0 95 -5 114 -11 67 -22 282 -54 372 -56 97 -2
333 26 366 43 17 9 152 24 306 34 28 2 51 4 52 5 1 1 26 -4 55 -12z m-574
-914 c17 17 42 1 42 -26 0 -30 -18 -44 -26 -21 -4 10 -14 15 -24 12 -28 -7
-43 8 -35 34 7 20 9 21 20 6 8 -12 15 -13 23 -5z"/>
<path d="M15670 30165 c0 -8 4 -15 8 -15 5 0 9 7 9 15 0 8 -4 15 -9 15 -4 0
-8 -7 -8 -15z"/>
<path d="M15790 30090 c-13 -9 -13 -10 0 -10 8 0 22 5 30 10 13 9 13 10 0 10
-8 0 -22 -5 -30 -10z"/>
<path d="M15874 30091 c3 -5 17 -8 31 -8 14 0 28 3 31 8 3 5 -11 9 -31 9 -20
0 -34 -4 -31 -9z"/>
<path d="M15307 29812 c-26 -28 -22 -52 4 -25 12 11 20 26 17 33 -2 7 -9 5
-21 -8z"/>
<path d="M18746 27868 c-12 -7 -48 -8 -103 -4 -75 6 -87 5 -98 -10 -11 -15
-32 -19 -142 -21 -199 -4 -423 -29 -543 -59 -36 -8 -78 -18 -95 -21 -16 -2
-39 -9 -50 -14 -48 -22 -251 -89 -270 -89 -35 0 -72 -36 -99 -95 -14 -30 -31
-55 -39 -55 -7 0 -24 -10 -37 -22 -30 -28 -63 -25 -99 8 -14 13 -32 24 -40 24
-19 0 -40 -30 -41 -56 0 -13 -8 -24 -19 -27 -14 -3 -20 -16 -23 -53 -4 -48 6
-78 39 -112 18 -18 102 -18 138 0 17 8 61 16 99 17 39 1 73 4 76 6 3 2 28 6
56 10 110 13 126 15 135 21 5 3 44 9 87 14 42 5 127 16 187 24 61 8 209 27
330 40 443 51 500 59 522 73 13 9 36 12 64 9 52 -6 86 1 93 19 4 11 0 12 -17
6 -48 -18 -64 10 -17 29 34 14 61 16 285 25 88 3 175 11 193 16 17 6 45 8 60
4 16 -3 35 0 46 8 19 14 19 15 0 40 -10 14 -28 28 -39 31 -11 3 -30 23 -43 45
-20 36 -29 42 -95 62 -39 11 -77 25 -83 30 -10 8 -59 16 -149 24 -22 2 -58 8
-80 15 -22 6 -56 15 -75 19 -19 4 -45 13 -57 19 -26 14 -33 15 -57 0z m379
-78 c3 -5 1 -10 -4 -10 -6 0 -11 5 -11 10 0 6 2 10 4 10 3 0 8 -4 11 -10z
m-41 -161 c-7 -11 -34 -12 -34 -1 0 14 11 21 26 15 8 -3 11 -9 8 -14z"/>
<path d="M14499 27776 c-2 -2 -42 -6 -89 -10 -103 -7 -181 -21 -210 -36 -12
-7 -31 -10 -41 -7 -10 3 -21 1 -24 -3 -5 -8 -71 -30 -152 -50 -60 -15 -129
-70 -126 -101 1 -13 -5 -46 -13 -73 -19 -60 -13 -76 27 -76 20 0 43 -10 65
-29 18 -17 59 -37 91 -47 32 -9 67 -20 78 -25 16 -7 221 -12 370 -9 268 5 523
-19 779 -73 86 -18 112 -28 124 -45 13 -20 13 -22 -4 -22 -21 -1 -129 -11
-354 -36 -80 -9 -172 -15 -205 -14 -127 4 -152 3 -224 -4 -150 -15 -264 -70
-366 -175 -41 -43 -48 -54 -39 -69 6 -9 22 -18 36 -20 23 -3 25 -5 14 -27 -6
-14 -17 -25 -23 -25 -17 0 -28 -49 -16 -69 7 -11 28 -17 69 -19 32 -2 62 -9
66 -15 4 -7 35 -13 78 -13 68 -2 70 -1 64 20 -18 56 5 117 52 138 13 6 24 15
24 20 0 4 4 8 10 8 5 0 38 18 72 40 77 49 108 52 108 12 0 -50 30 -143 59
-185 27 -39 94 -109 150 -157 28 -23 102 -27 192 -10 46 9 62 19 112 68 66 65
122 167 133 240 3 26 8 50 11 54 4 8 63 -23 110 -58 32 -24 99 -127 105 -161
2 -12 -9 -23 -37 -36 -22 -10 -51 -26 -65 -35 -25 -17 -24 -17 55 -22 101 -7
240 11 262 32 13 14 14 23 4 62 -17 71 -16 79 18 71 40 -9 76 3 90 28 6 12 13
47 15 78 1 30 6 61 10 67 4 7 2 12 -3 12 -6 0 -11 6 -11 13 0 8 -8 21 -19 31
-31 28 -16 60 39 85 27 12 54 28 60 36 6 8 11 42 11 76 0 46 -5 67 -19 83 -11
11 -22 33 -26 49 -3 15 -11 27 -16 27 -5 0 -28 25 -50 55 -38 51 -42 54 -83
54 -34 -1 -74 15 -202 80 -88 45 -170 81 -183 81 -13 0 -56 9 -95 19 -108 29
-175 43 -242 52 -123 15 -210 30 -227 39 -9 5 -70 6 -135 3 -96 -5 -125 -3
-157 11 -35 14 -96 22 -107 12z m128 -711 c-4 -8 -17 -15 -31 -15 -13 0 -26
-7 -30 -15 -3 -8 -45 -33 -93 -56 -49 -22 -100 -46 -115 -54 -31 -16 -33 -13
-17 17 30 56 161 128 234 128 28 0 45 4 45 12 0 6 3 9 6 5 4 -3 4 -13 1 -22z
m383 -124 c0 -5 -7 -14 -15 -21 -12 -10 -15 -10 -15 2 0 8 3 18 7 21 9 10 23
9 23 -2z m724 -210 c16 -17 16 -20 0 -35 -12 -12 -25 -15 -48 -10 -56 12 -61
25 -18 48 36 20 46 20 66 -3z"/>
<path d="M17858 27216 c-31 -7 -101 -35 -155 -63 -158 -79 -243 -156 -243
-219 0 -21 3 -25 18 -19 9 4 34 9 56 12 31 5 37 3 30 -8 -5 -8 -33 -50 -62
-94 -85 -127 -67 -151 108 -140 110 7 140 13 140 29 0 15 -72 44 -93 37 -23
-9 -107 -1 -107 10 0 19 58 60 94 66 30 5 56 22 110 72 39 36 82 72 95 80 101
56 180 91 201 89 24 -3 25 -5 26 -83 1 -97 26 -154 106 -240 70 -74 122 -90
236 -70 42 7 91 17 107 22 53 16 155 171 169 258 11 66 15 68 82 39 71 -31 99
-64 99 -119 l0 -40 55 2 c161 4 230 15 230 36 0 7 -18 35 -40 62 -22 28 -40
54 -40 59 0 8 21 5 83 -10 23 -5 27 -3 27 14 0 11 -15 33 -32 48 -40 33 -180
100 -231 109 -47 9 -49 -8 -4 -31 36 -18 77 -53 77 -66 0 -5 -14 -1 -30 7 -17
9 -35 13 -41 9 -6 -3 -27 0 -47 9 -64 25 -102 35 -297 76 -104 23 -208 45
-230 51 -67 17 -431 22 -497 6z m515 -191 c7 -18 -9 -29 -30 -21 -12 5 -13 9
-3 21 16 19 26 19 33 0z"/>
<path d="M20969 26788 c-4 -44 30 -117 58 -124 14 -4 23 -15 25 -30 6 -50 23
-17 22 45 0 60 -2 66 -34 93 -36 29 -69 37 -71 16z"/>
<path d="M17145 24630 c-11 -17 0 -22 57 -28 49 -4 52 -3 37 12 -20 21 -84 32
-94 16z"/>
<path d="M19855 20997 c-3 -6 -6 -33 -9 -59 -4 -44 -3 -46 17 -39 23 9 36 42
29 78 -5 25 -31 39 -37 20z"/>
<path d="M14830 20097 c0 -43 38 -134 140 -340 110 -219 115 -228 146 -272 12
-17 42 -68 68 -115 25 -47 59 -102 74 -122 15 -21 55 -77 89 -125 90 -127 313
-383 334 -383 20 0 7 29 -30 68 -22 23 -54 63 -72 89 -18 26 -53 73 -78 103
-25 30 -55 71 -65 90 -11 19 -38 60 -61 90 -23 30 -59 84 -80 120 -21 36 -62
94 -91 130 -28 36 -55 75 -58 87 -4 13 -13 29 -20 35 -21 22 -96 136 -96 147
0 10 -20 50 -99 196 -11 22 -34 80 -50 130 -29 88 -51 120 -51 72z"/>
<path d="M15367 18153 c-14 -16 -36 -43 -49 -60 -13 -18 -57 -77 -99 -130
-125 -161 -124 -160 -28 -251 113 -105 381 -381 436 -447 130 -156 308 -489
383 -715 38 -117 45 -137 125 -406 25 -83 54 -173 66 -199 14 -31 19 -59 16
-80 -5 -30 -67 -171 -124 -280 -14 -27 -50 -99 -81 -160 -30 -60 -65 -126 -77
-145 -12 -19 -27 -48 -33 -65 -6 -16 -25 -64 -42 -105 -52 -124 -224 -645
-254 -770 -12 -51 -37 -142 -72 -265 -17 -61 -64 -289 -135 -655 -17 -87 -44
-247 -84 -500 -9 -52 -22 -133 -30 -180 -79 -473 -120 -761 -196 -1375 -15
-118 -47 -401 -64 -555 -8 -74 -22 -184 -30 -245 -23 -173 -52 -425 -85 -748
-16 -164 -42 -396 -56 -515 -25 -214 -40 -364 -69 -677 -8 -88 -17 -176 -20
-195 -3 -19 -9 -82 -15 -140 -5 -58 -19 -184 -30 -280 -34 -285 -58 -500 -65
-580 -3 -41 -10 -115 -16 -165 -88 -824 -98 -919 -149 -1530 -41 -486 -59
-684 -64 -720 -3 -16 -15 -154 -26 -305 -23 -310 -53 -647 -75 -855 -48 -442
-75 -740 -110 -1190 -8 -110 -22 -272 -30 -360 -8 -88 -19 -230 -25 -315 -6
-85 -18 -234 -26 -330 -7 -96 -25 -314 -38 -485 -24 -299 -60 -691 -72 -786
l-6 -46 43 -17 c40 -16 80 -25 289 -61 79 -14 150 -27 265 -50 154 -31 302
-55 335 -55 19 0 71 -6 115 -14 44 -8 121 -20 170 -27 50 -6 135 -17 190 -25
55 -7 147 -18 205 -23 280 -28 334 -32 455 -41 72 -5 166 -14 209 -20 44 -5
154 -10 246 -10 l167 0 7 98 c3 53 8 174 11 267 3 94 7 195 10 225 7 103 52
1016 60 1230 3 85 10 238 15 340 5 102 12 241 15 310 3 69 12 256 20 415 15
313 36 777 60 1325 8 190 19 431 24 535 17 330 40 914 57 1400 8 259 19 553
25 655 14 276 34 797 60 1555 24 733 40 1159 59 1545 20 420 24 510 60 1175
29 560 39 778 50 1155 6 190 15 480 20 645 10 304 15 1500 6 1526 -3 8 -10 97
-16 199 -18 292 -37 426 -109 748 -22 97 -45 208 -51 246 -6 38 -19 94 -29
125 -28 84 -42 159 -35 189 9 39 92 210 125 259 16 22 86 157 157 300 70 142
139 276 153 298 14 22 43 72 64 110 70 131 154 260 232 357 69 86 297 307 455
441 32 27 60 58 63 68 10 30 -45 113 -141 214 l-84 89 -33 -30 c-112 -104
-323 -247 -483 -327 -83 -42 -155 -50 -394 -42 -118 4 -217 8 -220 10 -9 5
-283 24 -440 30 -314 12 -506 42 -618 99 -58 29 -407 346 -415 377 -8 28 -49
24 -80 -8z"/>
</g>
</svg>
